<svg width="800" height="599.9999999999999" xmlns="http://www.w3.org/2000/svg">

 <g>
  <title>Layer 1</title>
  <path stroke="#d4e6f1" id="svg_2" d="m252.29089,441.6556c0.18137,-1.86145 0.28638,-3.74199 0.28638,-5.64162c0,-32.95243 -26.70941,-59.66184 -59.66184,-59.66184c-25.57345,0 -47.32854,16.12301 -55.81484,38.74678c-5.62253,-6.16665 -13.64108,-10.1091 -22.64286,-10.1091c-16.9726,0 -30.72823,13.75563 -30.72823,30.72823c0,2.00464 0.21956,3.96155 0.59185,5.85163c-22.64286,3.73244 -39.96866,23.2538 -39.96866,46.94671c0,26.36576 21.37326,47.72947 47.72947,47.72947l151.54106,0c26.36576,0 47.72947,-21.36371 47.72947,-47.72947c0.00955,-23.39699 -16.8485,-42.77515 -39.0618,-46.86079z" fill="#d4e6f1"/>
  <path stroke="#ffffff" id="svg_4" d="m694.29089,117.6556c0.18137,-1.86145 0.28637,-3.74199 0.28637,-5.64162c0,-32.95243 -26.70941,-59.66184 -59.66183,-59.66184c-25.57345,0 -47.32854,16.12301 -55.81484,38.74678c-5.62253,-6.16664 -13.64108,-10.1091 -22.64286,-10.1091c-16.9726,0 -30.72823,13.75563 -30.72823,30.72823c0,2.00464 0.21955,3.96155 0.59184,5.85164c-22.64286,3.73244 -39.96866,23.25379 -39.96866,46.9467c0,26.36576 21.37326,47.72947 47.72947,47.72947l151.54107,0c26.36575,0 47.72947,-21.36371 47.72947,-47.72947c0.00954,-23.39698 -16.84851,-42.77515 -39.0618,-46.86079z" fill="#fff"/>
 </g>
</svg>